<?xml version="1.0" encoding="UTF-8" standalone="no"?>
<svg width="56px" height="56px" viewBox="0 0 56 56" version="1.1" xmlns="http://www.w3.org/2000/svg" xmlns:xlink="http://www.w3.org/1999/xlink" xmlns:sketch="http://www.bohemiancoding.com/sketch/ns">
    <!-- Generator: Sketch 3.3 (11970) - http://www.bohemiancoding.com/sketch -->
    <title>noun_77084_cc copy</title>
    <desc>Created with Sketch.</desc>
    <defs>
        <rect id="path-1" x="0" y="0" width="58" height="56"></rect>
    </defs>
    <g id="User-Interface" stroke="none" stroke-width="1" fill="none" fill-rule="evenodd" sketch:type="MSPage">
        <g id="search-result" sketch:type="MSArtboardGroup" transform="translate(0.000000, -98.000000)">
            <g id="Group" sketch:type="MSLayerGroup">
                <g id="sidebar-copy" transform="translate(0.000000, 98.000000)">
                    <g id="noun_77084_cc-copy">
                        <mask id="mask-2" sketch:name="Mask" fill="white">
                            <use xlink:href="#path-1"></use>
                        </mask>
                        <use id="Mask" sketch:type="MSShapeGroup" xlink:href="#path-1"></use>
                        <g mask="url(#mask-2)" id="noun_77084_cc">
                            <g transform="translate(25.207552, 30.213679) rotate(-7.000000) translate(-25.207552, -30.213679) translate(-5.612789, 0.534833)">
                                <g transform="translate(0.538600, 0.510525)">
                                    <g id="Group" transform="translate(1.141494, 0.895535)" fill="#FFFFFF" sketch:type="MSShapeGroup">
                                        <path d="M28.8042334,37.0708093 L5.842149,37.0708093 L5.842149,35.1296223 L26.1520936,35.1296223 C24.4194486,33.5333194 23.0557689,31.5694852 22.2516971,29.3060611 L5.842149,29.3060611 L5.842149,27.3648741 L21.699222,27.3648741 C21.5059854,26.4246925 21.404828,25.4502166 21.404828,24.4530935 C21.404828,23.4546763 21.5137668,22.4827887 21.7076518,21.541313 L5.842149,21.541313 L5.842149,19.6001259 L22.2542909,19.6001259 C23.0557689,17.3535254 24.3876748,15.366397 26.1086477,13.7765648 L5.842149,13.7765648 L5.842149,11.8353778 L28.7283654,11.8353778 C30.871476,10.6014299 33.3485357,9.89419071 35.9948396,9.89419071 C38.4530944,9.89419071 40.7686914,10.5101941 42.8035117,11.5862587 L42.8035117,0.188255501 L0.006144366,0.188255501 L0.006144366,56.4826797 L42.8035117,56.4826797 L42.8035117,37.3192812 C40.7686914,38.395993 38.4530944,39.0119963 35.9948396,39.0119963 C33.3712313,39.0119963 30.929836,38.2859924 28.8042334,37.0708093 L28.8042334,37.0708093 L28.8042334,37.0708093 Z M36.967507,44.8355575 L5.842149,44.8355575 L5.842149,42.8943704 L36.967507,42.8943704 L36.967507,44.8355575 L36.967507,44.8355575 Z" id="Shape"></path>
                                        <path d="M35.9948396,15.7177518 C31.1678153,15.7177518 27.2408326,19.6363614 27.2408326,24.4530935 C27.2408326,29.2698256 31.1678153,33.1884352 35.9948396,33.1884352 C40.8218639,33.1884352 44.7488465,29.2698256 44.7488465,24.4530935 C44.7488465,19.6363614 40.8218639,15.7177518 35.9948396,15.7177518 L35.9948396,15.7177518 Z" id="Shape"></path>
                                        <path d="M44.6134823,37.1672298 L48.7357453,33.0514287 L58.3663755,42.6560897 L54.2441125,46.7718908 L44.6134823,37.1672298 L44.6134823,37.1672298 Z" id="Rectangle-path"></path>
                                    </g>
                                </g>
                            </g>
                        </g>
                    </g>
                </g>
            </g>
        </g>
    </g>
</svg>