<?xml version="1.0" encoding="UTF-8" standalone="no"?>
<svg width="63px" height="71px" viewBox="0 0 63 71" version="1.1" xmlns="http://www.w3.org/2000/svg" xmlns:xlink="http://www.w3.org/1999/xlink" xmlns:sketch="http://www.bohemiancoding.com/sketch/ns">
    <!-- Generator: Sketch 3.3 (11970) - http://www.bohemiancoding.com/sketch -->
    <title>Group</title>
    <desc>Created with Sketch.</desc>
    <defs></defs>
    <g id="User-Interface" stroke="none" stroke-width="1" fill="none" fill-rule="evenodd" sketch:type="MSPage">
        <g id="home_final" sketch:type="MSArtboardGroup" transform="translate(-265.000000, -622.000000)" fill="#FFFFFF">
            <g id="Group" sketch:type="MSLayerGroup" transform="translate(265.375000, 621.815380)">
                <g id="noun_24073_cc-2" sketch:type="MSShapeGroup">
                    <g id="Group">
                        <g id="Shape">
                            <path d="M16.051,23.399 L34.082,5.368 C35.249,4.201 35.249,2.292 34.082,1.125 C32.915,-0.042 31.006,-0.042 29.839,1.125 L11.809,19.156 C10.642,20.323 10.642,22.232 11.809,23.399 C12.975,24.566 14.884,24.566 16.051,23.399 L16.051,23.399 Z"></path>
                            <path d="M61.66,28.702 C60.493,27.535 58.584,27.535 57.417,28.702 L39.386,46.734 C38.219,47.901 38.219,49.81 39.386,50.977 C40.553,52.144 42.462,52.144 43.629,50.977 L61.66,32.945 C62.826,31.778 62.826,29.869 61.66,28.702 L61.66,28.702 Z"></path>
                            <path d="M54.235,27.641 L46.81,20.216 L47.871,19.155 C49.038,17.988 49.038,16.079 47.871,14.912 L46.81,13.851 C45.643,12.684 43.734,12.684 42.567,13.851 L41.506,14.912 L35.142,8.548 L19.232,24.458 L25.596,30.822 L1.202,55.219 C0.035,56.386 0.035,58.295 1.202,59.462 L2.263,60.523 C3.43,61.69 5.339,61.69 6.506,60.523 L30.9,36.127 L38.325,43.552 L54.235,27.641 L54.235,27.641 Z"></path>
                        </g>
                        <path d="M59.535,66.25 L58.035,66.25 L58.035,64.75 C58.035,63.1 56.685,61.75 55.035,61.75 L23.535,61.75 C21.885,61.75 20.535,63.1 20.535,64.75 L20.535,66.25 L19.035,66.25 C17.385,66.25 16.035,67.263 16.035,68.5 C16.035,69.737 17.385,70.75 19.035,70.75 L23.535,70.75 L55.035,70.75 L59.535,70.75 C61.185,70.75 62.535,69.737 62.535,68.5 C62.535,67.263 61.185,66.25 59.535,66.25 L59.535,66.25 Z" id="Shape"></path>
                    </g>
                </g>
            </g>
        </g>
    </g>
</svg>