<?xml version="1.0" encoding="UTF-8" standalone="no"?>
<svg width="140px" height="76px" viewBox="0 0 140 76" version="1.1" xmlns="http://www.w3.org/2000/svg" xmlns:xlink="http://www.w3.org/1999/xlink" xmlns:sketch="http://www.bohemiancoding.com/sketch/ns">
    <!-- Generator: Sketch 3.3 (11970) - http://www.bohemiancoding.com/sketch -->
    <title>noun_51319_cc</title>
    <desc>Created with Sketch.</desc>
    <defs></defs>
    <g id="User-Interface" stroke="none" stroke-width="1" fill="none" fill-rule="evenodd" sketch:type="MSPage">
        <g id="home" sketch:type="MSArtboardGroup" transform="translate(-581.000000, -659.000000)" fill="#FFFFFF">
            <g id="P3B-+-noun_51319_cc" sketch:type="MSLayerGroup" transform="translate(580.000000, 658.000000)">
                <g id="noun_51319_cc" transform="translate(0.000000, 0.390119)" sketch:type="MSShapeGroup">
                    <g id="entertainment" transform="translate(0.745064, 0.669634)">
                        <path d="M109.105002,58.8399185 L108.65601,57.1404549 C108.65601,56.8198014 106.956256,50.8235808 107.11661,43.6088769 C107.276964,35.752866 113.883557,30.6865406 114.204266,30.3658871 L116.353012,33.1235072 C116.353012,33.1235072 110.965111,37.4202642 110.804757,43.5768115 C110.644402,48.0338953 111.253748,52.2023909 111.734811,54.3507694 L118.662113,52.3627176 L119.752521,55.7616448 L109.105002,58.8399185 L109.105002,58.8399185 Z" id="Shape"></path>
                        <path d="M109.425711,39.4403813 C108.65601,39.2800546 106.507264,38.0615712 104.647155,32.5142656 C102.787046,27.1272867 99.7082456,15.2631069 99.5799622,14.6538652 L99.1309705,12.9544017 L109.137073,10.3250429 L110.067127,13.7239701 L103.588817,15.4234337 C104.518872,18.9506222 106.667618,27.2876134 108.046664,31.2637169 C109.425711,35.2398204 110.516119,36.0414541 110.676473,36.0414541 C110.676473,36.0414541 110.676473,36.0414541 110.516119,35.8811274 L109.425711,39.4403813 L109.425711,39.4403813 Z" id="Shape"></path>
                        <path d="M124.370723,67.6258245 C123.440668,67.6258245 122.510614,67.305171 121.901268,66.8562561 C120.041159,65.6377728 119.431813,63.008414 119.431813,62.5594991 L107.11661,7.11850785 L128.219224,1.73152894 L129.149278,5.1304561 L111.446174,9.58753985 L122.991676,61.7578654 C122.991676,62.2067803 123.440668,63.2970022 123.921731,63.7459171 C124.082085,63.9062439 124.242439,63.9062439 124.851785,63.9062439 C128.251294,63.1366754 139.15538,60.5073167 139.15538,60.5073167 L139.925081,64.0345053 C139.764726,64.0345053 128.828569,66.663864 125.461131,67.4334324 C125.140423,67.4654978 124.65936,67.6258245 124.370723,67.6258245 L124.370723,67.6258245 Z" id="Shape"></path>
                        <path d="M106.026201,52.8436979 C105.096147,52.8436979 104.037809,52.6833711 103.268109,52.2344562 C101.728709,51.4648878 86.495059,35.752866 76.7775941,25.4598884 C76.1682481,25.9088033 75.3985479,26.3897836 74.4684935,26.8386985 C72.9290931,27.6082669 71.3896927,27.9289204 70.2992841,28.0571818 C69.6899381,29.7566454 68.4391753,32.9952458 66.8997749,36.0735195 C65.2000204,39.7610348 60.2931816,40.8512567 57.5030184,40.3702765 C53.4941633,39.7610348 53.4941633,37.7409177 53.9752259,33.283834 C54.4242177,29.1153384 54.9052803,26.0370647 55.0656345,25.5881498 C55.2259887,24.4979279 55.9956889,18.2131192 58.7537813,15.5837604 C61.0628818,13.4353819 70.1389299,7.43916135 71.3896927,6.66959294 C72.6083847,5.57937101 75.3985479,4.36088769 79.2470488,5.90002452 C83.255904,7.43916135 102.787046,15.1348455 102.947401,15.2951723 L101.568354,18.6940994 C101.408,18.5337727 81.7165036,10.8380885 77.8680027,9.45927844 C75.2381937,8.52938327 73.8591475,9.45927844 73.6987933,9.6196052 L73.5384391,9.77993195 L73.3780849,9.77993195 C70.6199925,11.6397223 63.051274,16.7060477 61.223236,18.4055113 C59.8441899,19.7843214 58.9141355,24.2414051 58.5934271,26.2615222 L58.5934271,26.4218489 C58.5934271,26.4218489 57.9840811,29.5001226 57.6633727,33.9572063 C57.5030184,34.7267748 57.3426642,36.4262383 57.5030184,37.03548 C57.6633727,37.03548 57.9520102,37.1958068 58.2727186,37.1958068 C59.9724732,37.5164603 63.051274,36.7468919 63.9813284,34.8871015 C65.8414372,30.8789327 67.5091209,26.1011954 67.5091209,26.1011954 L67.9581127,25.0109735 L69.1768047,25.0109735 C69.1768047,25.0109735 71.4859053,24.8506468 73.1856598,24.0810783 C74.8854144,23.1511832 75.4947604,22.3816148 75.6551146,22.221288 L76.8738066,20.2332363 L78.413207,22.0930266 C87.9703177,31.9370893 103.492605,48.098026 105.352714,49.4768361 C105.96206,49.7974896 107.661814,49.6371628 108.752223,49.3165093 L109.682277,52.7154365 C108.976719,52.5230444 107.565602,52.8436979 106.026201,52.8436979 L106.026201,52.8436979 Z" id="Shape"></path>
                        <path d="M56.1560431,71.7622548 C54.9373511,71.7622548 53.6865883,71.3133399 52.4678964,70.5437714 C48.1704036,67.4654978 49.709804,61.9181921 51.0888502,59.4491601 L51.6981962,58.5192649 L52.7886048,58.5192649 C52.948959,58.5192649 56.3163973,58.8399185 59.1065605,61.1486237 C62.1853613,63.7779825 62.7947073,66.0866877 62.7947073,66.3752759 L62.9550615,67.1448443 L62.5060697,67.9144127 C62.1532904,68.3953929 59.8441899,71.7622548 56.1560431,71.7622548 L56.1560431,71.7622548 Z M53.6865883,62.3991724 C53.5262341,62.8480873 53.3658799,63.3290675 53.2375966,63.9383092 C52.9168881,66.0866877 53.8469425,67.0165829 54.4562885,67.4654978 C55.0656345,67.9144127 55.5466971,68.0747394 56.1560431,68.0747394 C57.2464517,68.0747394 58.3047895,67.1448443 58.9141355,66.5356026 C58.5934271,65.9263609 57.8237269,64.9964658 56.6050349,63.7779825 C55.5466971,63.1687408 54.4562885,62.6877605 53.6865883,62.3991724 L53.6865883,62.3991724 Z" id="Shape"></path>
                        <path d="M48.0100494,65.7660342 C47.079995,65.7660342 46.1499406,65.4453807 45.2519571,64.9964658 C41.2431019,62.8480873 42.0128021,57.9100233 42.9428565,55.7616448 L43.3918483,54.8317496 L44.4822569,54.8317496 L44.8029653,54.8317496 C45.4123113,54.8317496 47.8817661,54.9920764 50.0305124,56.5312132 C52.7886048,58.3910035 53.558305,60.3790553 53.7186592,60.6997088 L54.0393676,61.4692772 L53.7186592,62.0785189 C52.9168881,63.1687408 50.928496,65.7660342 48.0100494,65.7660342 L48.0100494,65.7660342 Z M45.8613031,58.2306768 C45.5405946,59.3208987 45.5405946,60.9882969 46.9517117,61.7578654 C47.2724201,61.9181921 47.7214119,62.0785189 48.0421203,62.0785189 C48.8118205,62.0785189 49.5815206,61.4692772 50.0305124,60.8600355 C49.709804,60.4111206 49.100458,59.7698136 48.1704036,59.160572 C47.4007034,58.6795917 46.470649,58.3910035 45.8613031,58.2306768 L45.8613031,58.2306768 Z" id="Shape"></path>
                        <path d="M63.853045,75.1611819 C63.243699,75.1611819 62.4739988,75.0008552 61.8646529,74.712267 C58.0161519,73.1731302 58.3368603,68.7160465 58.9462063,66.6959294 L59.2669147,65.6057074 L60.3573233,65.4453807 L61.4477319,65.4453807 C62.3777863,65.4453807 63.9171867,65.6057074 65.4565871,66.3752759 C68.0863961,67.7540859 68.9843796,69.2932228 69.1447338,69.6138763 L69.4654423,70.3834447 L69.1447338,71.1530131 C68.6316004,72.5318232 66.7714916,75.1611819 63.853045,75.1611819 L63.853045,75.1611819 Z M62.1532904,69.0046346 C62.1532904,69.9345298 62.1532904,70.9926864 63.243699,71.4736666 C63.5644075,71.6339934 63.6926908,71.6339934 63.853045,71.6339934 C64.462391,71.6339934 64.9434536,71.1850785 65.2320912,70.5437714 C64.9113828,70.2231179 64.462391,69.774203 63.6926908,69.4535495 C63.243699,69.1649614 62.6343531,69.0046346 62.1532904,69.0046346 L62.1532904,69.0046346 Z" id="Shape"></path>
                        <path d="M41.3713853,60.539382 C40.6016851,60.539382 39.8319849,60.3790553 39.0622847,59.9301404 C35.6627755,58.07035 36.3041923,54.0942466 37.2021759,52.2344562 L37.6511677,51.304561 L38.7415763,51.304561 L38.9019305,51.304561 C39.6716307,51.304561 41.5317395,51.4648878 43.1994232,52.6833711 C45.3481696,54.222508 46.1178698,55.7616448 46.1178698,56.0822983 L46.4385782,56.8518667 L46.1178698,57.6214351 C45.9895864,57.6214351 44.3219027,60.539382 41.3713853,60.539382 L41.3713853,60.539382 Z M40.1526933,54.8317496 C39.9923391,55.4409913 40.1526933,56.3708865 40.9223935,56.69154 C41.0827477,56.8518667 41.3713853,56.8518667 41.5317395,56.8518667 C41.8524479,56.8518667 42.1410855,56.5312132 42.4617939,56.2426251 C42.1410855,55.9219715 41.8524479,55.6333834 41.3713853,55.3127299 C40.7620393,55.1524031 40.4734017,54.9920764 40.1526933,54.8317496 L40.1526933,54.8317496 Z" id="Shape"></path>
                        <path d="M38.1643011,54.5431615 C38.1643011,54.5431615 35.2458546,53.3246781 31.6859912,51.9138027 L33.0650374,48.5148755 C36.4645466,50.0540124 39.3829931,51.2724957 39.3829931,51.2724957 L38.1643011,54.5431615 L38.1643011,54.5431615 Z" id="Shape"></path>
                        <path d="M42.1410855,17.4435508 C41.2110311,17.4435508 40.4413309,17.283224 40.1526933,17.1228973 L38.9340013,16.8022437 L39.8640557,13.2750552 L41.2431019,13.5957087 C41.2431019,13.5957087 42.4617939,13.9163622 43.5522025,13.4353819 C44.7708945,12.8261403 47.5610576,11.2870034 47.8496952,11.1266767 L61.2553069,2.82175086 C62.0250071,2.37283595 64.7830994,0.673372364 66.3224998,0.352718857 C67.8619002,0.0320653507 70.331355,0.352718857 70.6199925,0.352718857 L85.8536422,1.57120218 C86.4629881,1.57120218 88.4834511,1.89185569 89.5417889,3.11033901 C90.4718433,4.04023418 90.9208351,6.18861268 91.2415435,6.95818109 L92.3319521,11.1266767 L88.6438053,12.0565718 L87.5533967,7.75981486 C87.3930425,6.82991969 87.104405,5.90002452 86.7836966,5.61143636 C86.6233423,5.45110961 85.8536422,5.29078286 85.4046504,5.16252146 L70.331355,3.94403813 C69.4013006,3.94403813 67.701546,3.78371138 66.9318458,3.94403813 C66.482854,4.10436488 64.6227452,4.8739333 63.243699,5.93208987 L49.709804,14.3652771 C49.5494498,14.3652771 46.470649,16.2250674 45.0916029,16.8343091 C44.1615485,17.283224 43.0711399,17.4435508 42.1410855,17.4435508 L42.1410855,17.4435508 Z" id="Shape"></path>
                        <path d="M73.8591475,73.4617184 C71.3896927,73.4617184 67.701546,72.243235 66.9318458,71.9225815 L68.1505378,68.5236544 C70.2992841,69.2932228 73.2177307,69.9024644 74.1477851,69.7421377 C74.9174853,69.5818109 76.2965314,68.2030008 76.9058774,67.2731057 L79.824324,69.2611574 C79.3753322,69.8703991 77.194515,72.788346 74.5967769,73.1089995 C74.3402101,73.4617184 74.1798559,73.4617184 73.8591475,73.4617184 L73.8591475,73.4617184 Z" id="Shape"></path>
                        <path d="M82.4862038,71.7622548 C82.3258496,71.7622548 82.3258496,71.7622548 82.4862038,71.7622548 C77.7076485,71.601928 71.7104011,65.4453807 71.1010552,64.6758123 L73.7308641,62.2067803 C75.8796105,64.5154855 80.0488199,68.0426741 82.5182747,68.0426741 L82.5182747,68.0426741 C83.6086833,68.0426741 85.276367,66.1828838 86.2064214,64.9644004 L89.124868,66.9524522 C88.4834511,67.7861513 85.885713,71.7622548 82.4862038,71.7622548 L82.4862038,71.7622548 Z" id="Shape"></path>
                        <path d="M89.8624973,67.9144127 C87.2326883,67.9144127 84.7953044,65.7660342 84.474596,65.6057074 L76.7775941,58.6795917 L79.2470488,56.0502329 L86.9440508,62.9763487 C87.5533967,63.4252636 89.0927971,64.5154855 90.1832057,64.3551588 C91.4018977,64.194832 92.1715979,63.5855904 92.8130147,62.367107 C93.1337231,61.7578654 93.4223607,60.5073167 93.4223607,59.898075 L96.9501532,60.0584018 C96.9501532,60.3790553 96.789799,62.367107 95.8597446,64.0665706 C94.6410527,66.2149491 92.9412981,67.4654978 90.6321975,67.7540859 C90.3435599,67.9144127 90.0228515,67.9144127 89.8624973,67.9144127 L89.8624973,67.9144127 Z" id="Shape"></path>
                        <path d="M97.4312159,61.9181921 C94.6731235,61.9181921 92.0433145,59.7698136 90.3435599,58.2306768 C88.3551678,56.3708865 83.255904,50.0860777 82.9672664,49.7654242 L85.7253588,47.456719 C87.104405,49.3165093 91.2736143,54.222508 92.8130147,55.601318 C95.2824695,58.07035 96.8218699,58.3589382 97.5915701,58.3589382 C99.1309705,58.1986114 100.221379,57.5893698 100.991079,56.6594746 C101.921134,55.4409913 102.209771,53.7415277 102.081488,52.8116325 C101.921134,51.5931492 101.760779,51.1121689 100.702442,50.0540124 L103.332251,47.5849804 C104.871651,49.1241172 105.480997,50.3426005 105.641351,52.3627176 C105.96206,54.222508 105.480997,56.8198014 103.781242,58.9681799 C102.402196,60.6676434 100.381733,61.7258 97.9443493,62.0464535 C97.7198534,61.9181921 97.5594992,61.9181921 97.4312159,61.9181921 L97.4312159,61.9181921 Z" id="Shape"></path>
                        <path d="M115.743666,29.9169722 L114.813612,26.518045 L117.443421,25.9088033 L118.373475,29.4359919 L115.743666,29.9169722 L115.743666,29.9169722 Z M120.971213,28.5381621 L120.201513,25.1392349 L122.831322,24.5299933 L123.761377,28.0571818 L120.971213,28.5381621 L120.971213,28.5381621 Z M126.198761,27.2876134 L125.268706,23.7604248 L127.898515,23.1511832 L128.828569,26.6783717 L126.198761,27.2876134 L126.198761,27.2876134 Z M131.586662,25.9088033 L130.656607,22.3816148 L133.286416,21.7723731 L134.216471,25.2995617 L131.586662,25.9088033 L131.586662,25.9088033 Z" id="Shape"></path>
                        <path d="M32.134983,58.8399185 L21.6798887,55.601318 L22.7702973,52.2023909 L29.697599,54.1904426 C30.1465908,52.0420641 30.7880076,47.8735685 30.6276534,43.4164848 C30.4672992,37.2599375 25.0793979,32.9631805 25.0793979,32.9631805 L27.2281443,30.2055603 C27.5488527,30.3658871 33.9950918,35.4322125 34.3158002,43.4485501 C34.4761544,50.8235808 32.936754,56.8518667 32.7763998,56.9801281 L32.134983,58.8399185 L32.134983,58.8399185 Z" id="Shape"></path>
                        <path d="M31.6859912,39.4403813 L30.7559368,36.0414541 C30.5955826,36.0414541 30.5955826,36.2017809 30.5955826,36.2017809 C30.5955826,36.2017809 31.8142746,35.4322125 33.2253916,31.4240436 C34.6044378,27.4158748 36.7531841,19.110949 37.6832385,15.5837604 L31.2049286,13.8842968 L32.134983,10.4853697 L42.1410855,13.1147284 L41.6920937,14.814192 C41.5317395,15.2631069 38.4529387,27.2876134 36.6249008,32.6745923 C34.6044378,38.221898 32.6160456,39.3121199 31.6859912,39.4403813 L31.6859912,39.4403813 Z" id="Shape"></path>
                        <path d="M16.9013334,67.6258245 C16.580625,67.6258245 16.1316332,67.6258245 15.8109248,67.4654978 C12.4114156,66.6959294 0.865912715,63.6176557 0.25656673,63.4573289 L1.18662113,60.0584018 C1.34697533,60.0584018 13.1811158,63.1366754 16.580625,63.9062439 C17.0296167,64.0665706 17.3503251,63.9062439 17.5106793,63.7459171 C18.1200253,63.2970022 18.4407337,62.2067803 18.4407337,61.7578654 L18.4407337,61.5975386 L29.9862366,9.42721309 L11.2247945,4.36088769 L12.1548489,0.96196052 L34.155446,6.79785434 L21.8402429,62.2388456 C21.6798887,62.8480873 21.2308969,65.3171193 19.3707881,66.5356026 C18.7614422,67.305171 17.8313878,67.6258245 16.9013334,67.6258245 L16.9013334,67.6258245 Z" id="Shape"></path>
                        <path d="M16.2919874,54.3828347 L13.6621784,53.773593 L14.4318786,50.2464045 L17.0616876,50.8556461 L16.2919874,54.3828347 L16.2919874,54.3828347 Z M10.904086,53.1643514 L8.27427705,52.5551097 L9.04397725,49.0279212 L11.6737862,49.6371628 L10.904086,53.1643514 L10.904086,53.1643514 Z M5.67653891,51.9138027 L3.04672992,51.304561 L3.81643011,47.7773725 L6.4462391,48.3866141 L5.67653891,51.9138027 L5.67653891,51.9138027 Z" id="Shape"></path>
                        <path d="M129.117207,56.0822983 C125.717698,56.0822983 122.959606,53.3246781 122.959606,49.925751 C122.959606,46.5268238 125.717698,43.7692036 129.117207,43.7692036 C132.516716,43.7692036 135.274809,46.5268238 135.274809,49.925751 C135.274809,53.3246781 132.516716,56.0822983 129.117207,56.0822983 L129.117207,56.0822983 Z M129.117207,47.456719 C127.738161,47.456719 126.647752,48.5469409 126.647752,49.925751 C126.647752,51.304561 127.738161,52.394783 129.117207,52.394783 C130.496253,52.394783 131.586662,51.304561 131.586662,49.925751 C131.586662,48.5469409 130.528324,47.456719 129.117207,47.456719 L129.117207,47.456719 Z" id="Shape"></path>
                    </g>
                </g>
            </g>
        </g>
    </g>
</svg>