<?xml version="1.0" encoding="UTF-8" standalone="no"?>
<svg width="80px" height="73px" viewBox="0 0 80 73" version="1.1" xmlns="http://www.w3.org/2000/svg" xmlns:xlink="http://www.w3.org/1999/xlink" xmlns:sketch="http://www.bohemiancoding.com/sketch/ns">
    <!-- Generator: Sketch 3.3 (11970) - http://www.bohemiancoding.com/sketch -->
    <title>noun_10733_cc</title>
    <desc>Created with Sketch.</desc>
    <defs></defs>
    <g id="User-Interface" stroke="none" stroke-width="1" fill="none" fill-rule="evenodd" sketch:type="MSPage">
        <g id="home_final" sketch:type="MSArtboardGroup" transform="translate(-1109.000000, -621.000000)">
            <g id="noun_10733_cc" sketch:type="MSLayerGroup" transform="translate(1109.625000, 620.547704)">
                <g id="Group" transform="translate(0.000000, 0.000000)" sketch:type="MSShapeGroup">
                    <g transform="translate(0.000000, 0.000000)" id="Shape" fill="#FFFFFF">
                        <path d="M13.8715152,0.602020202 L37.9442424,17.0747475 L37.9442424,73.3010101 C29.4852525,61.1418182 13.8715152,56.2020202 13.8715152,56.2020202 L13.8715152,0.602020202 L13.8715152,0.602020202 Z"></path>
                        <path d="M16.4323232,69.7446465 C16.4323232,69.7446465 9.4230303,66.2028283 0.0395959596,67.6662626 L0.0395959596,12.4242424 L2.33454545,12.4242424 L2.33454545,64.8969697 C2.33454545,64.8977778 12.4387879,64.7725253 16.4323232,69.7446465 L16.4323232,69.7446465 Z"></path>
                        <path d="M25.9078788,67.9450505 L25.9078788,67.9450505 C22.2416162,62.7321212 10.7030303,58.6771717 10.7030303,58.6771717 L10.7030303,6.82989899 L5.90949495,4.95515152 L5.90949495,61.3874747 C5.90949495,61.3874747 10.8371717,61.9951515 13.2985859,62.6892929 C21.7987879,65.0917172 25.9078788,67.9450505 25.9078788,67.9450505 L25.9078788,67.9450505 Z"></path>
                    </g>
                    <g transform="translate(40.404040, 0.000000)" id="Shape" fill="#FFFBFB">
                        <path d="M24.7822222,0.602020202 L0.709494949,17.0747475 L0.709494949,73.3010101 C9.16848485,61.1418182 24.7822222,56.2020202 24.7822222,56.2020202 L24.7822222,0.602020202 L24.7822222,0.602020202 Z"></path>
                        <path d="M22.2214141,69.7446465 C22.2214141,69.7446465 29.2315152,66.2028283 38.6141414,67.6662626 L38.6141414,12.4242424 L36.3191919,12.4242424 L36.3191919,64.8969697 C36.3191919,64.8977778 26.2149495,64.7725253 22.2214141,69.7446465 L22.2214141,69.7446465 Z"></path>
                        <path d="M12.7458586,67.9450505 L12.7458586,67.9450505 C16.4121212,62.7321212 27.9507071,58.6771717 27.9507071,58.6771717 L27.9507071,6.82989899 L32.7442424,4.95515152 L32.7442424,61.3874747 C32.7442424,61.3874747 27.8165657,61.9951515 25.3551515,62.6892929 C16.8541414,65.0917172 12.7458586,67.9450505 12.7458586,67.9450505 L12.7458586,67.9450505 Z"></path>
                    </g>
                </g>
            </g>
        </g>
    </g>
</svg>