<?xml version="1.0" encoding="UTF-8" standalone="no"?>
<svg width="63px" height="71px" viewBox="0 0 63 71" version="1.1" xmlns="http://www.w3.org/2000/svg" xmlns:xlink="http://www.w3.org/1999/xlink" xmlns:sketch="http://www.bohemiancoding.com/sketch/ns">
    <!-- Generator: Sketch 3.3 (11970) - http://www.bohemiancoding.com/sketch -->
    <title>noun_39004_cc</title>
    <desc>Created with Sketch.</desc>
    <defs></defs>
    <g id="User-Interface" stroke="none" stroke-width="1" fill="none" fill-rule="evenodd" sketch:type="MSPage">
        <g id="home_final" sketch:type="MSArtboardGroup" transform="translate(-679.000000, -622.000000)" fill="#FFFFFF">
            <g id="noun_39004_cc" sketch:type="MSLayerGroup" transform="translate(679.500000, 622.315380)">
                <g id="Group" sketch:type="MSShapeGroup">
                    <path d="M61.512,24.425 L61.512,8.807 L56.01,8.807 L56.01,5.028 C55.489,4.02 55.157,2.828 54.398,2.054 C53.573,1.215 52.352,0.765 51.302,0.146 L5.102,0.146 C3.205,0.731 1.661,1.747 0.853,3.65 C0.685,4.045 0.547,4.451 0.395,4.853 L0.395,65.172 C0.903,66.61 1.561,67.936 2.891,68.818 C3.887,69.479 4.964,69.847 6.158,69.849 C20.844,69.851 35.528,69.855 50.215,69.847 C52.669,69.846 54.837,68.271 55.655,65.952 C55.768,65.633 55.891,65.316 56.009,64.999 L56.009,59.221 L61.511,59.221 L61.511,43.604 L56.01,43.604 L56.01,41.86 L61.512,41.86 L61.512,26.242 L56.01,26.242 L56.01,24.425 L61.512,24.425 L61.512,24.425 Z M36.782,41.237 C35.448,42.749 33.28,42.607 32.362,42.465 L32.362,51.777 L17.575,51.777 L17.575,39.903 C14.671,37.351 12.827,33.619 12.827,29.449 C12.827,21.758 19.062,15.525 26.752,15.525 C34.442,15.525 40.676,21.758 40.676,29.449 C40.676,29.449 43.064,34.255 42.46,35.031 C41.857,35.809 39.357,35.371 39.357,35.371 L38.719,38.427 L34.681,37.922 C34.354,37.901 34.03,37.881 33.722,37.865 L36.782,41.237 L36.782,41.237 Z M38.748,41.847 C40.55,40.916 40.571,39.063 40.571,39.045 L41.359,39.045 C41.359,39.141 41.333,41.4 39.109,42.548 L38.748,41.847 L38.748,41.847 Z M39.543,43.886 C42.786,42.048 42.592,39.198 42.581,39.078 L43.366,39.01 C43.379,39.151 43.632,42.476 39.929,44.572 L39.543,43.886 L39.543,43.886 Z M40.538,46.61 L40.177,45.909 C44.572,43.64 44.624,39.091 44.624,39.045 L45.411,39.045 C45.411,39.251 45.354,44.122 40.538,46.61 L40.538,46.61 Z" id="Shape"></path>
                    <ellipse id="Oval" cx="36.434" cy="27.025" rx="1.511" ry="1.511"></ellipse>
                </g>
            </g>
        </g>
    </g>
</svg>