<?xml version="1.0" encoding="UTF-8" standalone="no"?>
<svg width="111px" height="73px" viewBox="0 0 111 73" version="1.1" xmlns="http://www.w3.org/2000/svg" xmlns:xlink="http://www.w3.org/1999/xlink" xmlns:sketch="http://www.bohemiancoding.com/sketch/ns">
    <!-- Generator: Sketch 3.3 (11970) - http://www.bohemiancoding.com/sketch -->
    <title>Layer_x0020_1</title>
    <desc>Created with Sketch.</desc>
    <defs></defs>
    <g id="User-Interface" stroke="none" stroke-width="1" fill="none" fill-rule="evenodd" sketch:type="MSPage">
        <g id="home" sketch:type="MSArtboardGroup" transform="translate(-495.000000, -640.000000)" fill="#FFFFFF">
            <g id="Tax-Calculator-+-Layer_x0020_1" sketch:type="MSLayerGroup" transform="translate(488.250000, 637.750000)">
                <g id="Layer_x0020_1" transform="translate(6.451017, 0.958172)" sketch:type="MSShapeGroup">
                    <path d="M72.690768,39.6199263 L44.0574666,23.0688432 C43.0170802,22.4674437 41.7264359,22.8568138 41.189013,23.9342695 L37.7690595,30.7895217 C37.2316302,31.8668328 37.64314,33.2401939 38.6833822,33.8415846 L67.3166836,50.3927944 C68.3569978,50.9940494 69.6477778,50.6046793 70.1852134,49.5274405 L73.6050908,42.6719727 C74.14252,41.5946615 73.7310824,40.2212244 72.6906957,39.6199732 L72.690768,39.6199263 Z M93.6177571,36.9816754 L107.491301,29.2777219 C107.985387,28.877751 108.306172,28.4881654 108.491445,28.1171132 C108.690925,27.71707 108.728355,27.330802 108.660636,26.9773472 C108.584767,26.5821359 108.381608,26.2023585 108.120034,25.8699621 C107.782878,25.4415038 107.36632,25.110983 106.994908,24.9256376 C106.94904,24.902848 106.905192,24.8774622 106.863363,24.8502014 L95.0387529,18.157722 C94.9590616,18.1125756 94.8861497,18.0599288 94.8202328,18.0015121 C94.6410901,19.1806555 95.088371,20.3308054 96.0562052,20.8892169 C96.6775091,21.2477191 97.4026603,21.2985636 98.0886522,21.0918707 L103.115764,23.9637865 C100.422486,26.8048344 96.3436543,27.7106425 93.1855069,25.8620204 L83.0326186,19.9188539 C84.3096273,17.8779608 86.5603053,16.9158194 82.4928813,16.7332882 C79.4847994,16.6230905 80.1396444,16.5432555 79.6307052,14.2397129 C79.3546344,13.2056725 78.5618313,13.0946104 77.6389292,13.330799 C75.7525149,13.8698147 75.4583444,12.6747339 75.3874523,11.33376 C75.3003328,9.57744973 75.722588,7.72024191 76.7062861,6.01557255 C79.1776553,1.73308174 84.2553296,0.0353367253 88.0474729,2.22378434 C92.7433445,4.93378973 97.439216,7.64380781 102.134961,10.3536737 C105.292322,12.1756891 106.562622,16.1171243 105.473052,19.8573477 L100.459853,16.9931425 C100.296792,16.292508 99.8892491,15.687219 99.2657817,15.3273433 C98.2506375,14.7415946 96.9586311,14.9772062 96.0127861,15.8155159 C96.1109398,15.8430653 96.2073627,15.8826586 96.2999637,15.9351611 L108.123483,22.6269176 L108.136176,22.6330477 C108.810271,22.9694097 109.551646,23.5505435 110.132137,24.2882447 C110.62442,24.9138034 111.013645,25.6643502 111.173245,26.4968059 C111.340993,27.3711742 111.257047,28.3103752 110.783947,29.2585283 C110.430132,29.9676724 109.858734,30.6723499 109.008601,31.3412465 L109.007159,31.3394436 C108.954873,31.3804792 108.898548,31.4180531 108.838473,31.4514441 L95.3914229,38.9184861 L93.5833323,48.9327607 C93.3058906,50.2059521 92.9790489,50.6491862 91.8784474,51.0926485 L42.4741448,72.661471 C40.105474,73.6298823 38.3126017,73.693131 35.7282237,72.4511726 L3.29718623,53.9148575 C1.3666387,52.8819712 1.17782986,51.8570846 1.29567052,50.4687284 C1.43680665,48.8076215 2.19405462,48.5255623 3.01743515,48.0914085 L33.2089675,32.1028967 C33.521386,31.9384664 33.9080877,32.0582551 34.0725181,32.3706735 C34.2369484,32.683092 34.1170875,33.0697214 33.804669,33.2342241 L4.12536053,48.9513423 C3.68161284,49.3003976 3.04502092,49.6014214 4.09636871,50.1436115 L36.715099,68.74359 C38.995719,70.0409406 40.5285226,69.9997559 41.8417383,69.2767644 L70.1992073,54.0777038 C71.3676763,53.5965989 72.26289,52.7329735 72.7884172,51.3513894 L77.4123187,41.9675725 C78.0124919,40.5559956 78.9986401,39.9160138 80.5151601,39.4691654 L93.6175143,36.9816394 L93.6177571,36.9816754 Z M58.0960022,49.9560687 C57.5916031,49.6644917 57.0856175,49.3711849 56.5772502,49.0776612 C55.4303443,48.4152501 53.4685624,48.4099123 52.225237,49.0662665 C51.6725184,49.3580591 51.1201599,49.6488422 50.5714856,49.9379665 C49.3322678,50.5907139 49.267439,51.6582854 50.4196028,52.3107462 C50.9284013,52.5989333 51.4370552,52.8871915 51.9457864,53.1750907 C53.086274,53.8205549 55.0259145,53.8250976 56.259069,53.1822304 C56.8057294,52.8972164 57.355275,52.6116265 57.905617,52.3245934 C59.1433206,51.6787691 59.2327448,50.6129997 58.0960111,49.9560622 L58.0960022,49.9560687 Z M49.1215332,54.6536017 C48.6117975,54.3682997 48.1020618,54.0816991 47.5920396,53.7957478 C46.4374167,53.1482646 44.4865984,53.1447314 43.2631075,53.7900504 C42.7199079,54.076651 42.17743,54.3626023 41.6384105,54.6466779 C40.4212605,55.2882475 40.3828938,56.3344042 41.542853,56.9714311 C42.0551847,57.2529107 42.5671574,57.5347518 43.0768868,57.8141402 C44.2274704,58.4448921 46.1562158,58.445757 47.3675955,57.8148614 C47.9049524,57.5351128 48.4450512,57.2536332 48.9853681,56.97208 C50.2040323,56.3367855 50.2645455,55.2933706 49.1215291,54.6536044 L49.1215332,54.6536017 Z M40.3021897,59.2666855 C39.7910109,58.9888113 39.278319,58.7082689 38.7650489,58.4290251 C37.6026381,57.796759 35.6638688,57.7982732 34.4612144,58.4310444 C33.9258764,58.7126686 33.3926297,58.9933544 32.86249,59.2726717 C31.669645,59.9014034 31.6539219,60.9249139 32.8214544,61.5462152 C33.3391239,61.8215644 33.8542684,62.0968425 34.3676121,62.3703173 C35.5250478,62.9867893 37.4430478,62.9846981 38.6309151,62.3662065 C39.1590409,62.0912898 39.6897639,61.8147853 40.2206353,61.5382098 C41.4180965,60.9139485 41.4548044,59.8933231 40.3022016,59.2666827 L40.3021897,59.2666855 Z M49.4167182,44.9362114 C48.8916932,44.6331687 48.3688317,44.330774 47.8461858,44.0283793 C46.6641585,43.3441882 44.6623575,43.3374085 43.409939,44.0096284 C42.853686,44.3082008 42.2974342,44.6064117 41.744495,44.9035408 C40.4972723,45.5735243 40.4552989,46.6718229 41.6433843,47.3441183 C42.1705729,47.6424015 42.6960304,47.9398198 43.2217034,48.2373104 C44.3996205,48.9041208 46.3701999,48.9102513 47.6117879,48.2512293 C48.1621984,47.9590753 48.7150615,47.6643988 49.2695087,47.3708029 C50.5178131,46.7095458 50.5892809,45.6131991 49.416703,44.9362113 L49.4167182,44.9362114 Z M40.3784209,49.7517245 C39.8516648,49.4564698 39.3254134,49.1609994 38.7967157,48.8652399 C37.6061776,48.1990065 35.6204585,48.1912895 34.388737,48.8529797 C33.8418598,49.1468635 33.2954149,49.43945 32.7506986,49.7313872 C31.5252547,50.3884617 31.5093173,51.46383 32.7074273,52.1210466 C33.2364193,52.4112527 33.7652666,52.701531 34.2962725,52.9929635 C35.4803922,53.6428981 37.4392142,53.6467204 38.6607647,52.9997426 C39.2017284,52.7133589 39.7452158,52.4244502 40.2891395,52.1357596 C41.5159531,51.4846709 41.5588688,50.4134877 40.3784226,49.751731 L40.3784209,49.7517245 Z M31.5011717,54.4806326 C30.9713148,54.1929502 30.4410243,53.9057015 29.90908,53.6165772 C28.710537,52.965344 26.7364245,52.9600797 25.5267062,53.6101587 C24.9896371,53.8989228 24.4532896,54.1872532 23.9202585,54.4731322 C22.7194074,55.1170809 22.7246007,56.169292 23.9300666,56.810859 C24.4625195,57.0942143 24.9947567,57.3774973 25.5290193,57.6620054 C26.7206392,58.2964351 28.6703758,58.2973723 29.8658903,57.6634478 C30.3971181,57.3817513 30.9310128,57.0980359 31.4655531,56.8147528 C32.6703699,56.1759238 32.689914,55.1259486 31.5011799,54.4806277 L31.5011717,54.4806326 Z M40.4547916,39.7532136 C39.9157759,39.4413721 39.3766155,39.1290969 38.8371711,38.8170385 C37.6154062,38.1104182 35.5772511,38.099168 34.3161836,38.7894892 C33.7555312,39.0963543 33.1958895,39.4032929 32.6389199,39.7077066 C31.3828986,40.3939179 31.3649422,41.5242307 32.5926917,42.2193156 C33.1347372,42.5261807 33.6766381,42.8333349 34.2183272,43.1400567 C35.4323041,43.8274208 37.4421163,43.8361472 38.6927212,43.1610433 C39.2466662,42.8621107 39.8045057,42.5607255 40.3621982,42.2596295 C41.6174992,41.5814965 41.6629348,40.4518939 40.4547987,39.7532074 L40.4547916,39.7532136 Z M31.3554181,44.6931366 C30.810632,44.3881459 30.269525,44.0840924 29.7263965,43.7794631 C28.4958329,43.0897186 26.4721834,43.0808476 25.2316606,43.7588371 C24.6814658,44.059573 24.1317769,44.360669 23.5849731,44.6598894 C22.3519568,45.3343446 22.3592413,46.4404983 23.5931226,47.1186401 C24.1387012,47.4185098 24.6843522,47.7179471 25.2297152,48.017241 C26.4519126,48.6882353 28.4500422,48.6940043 29.6780732,48.0306551 C30.2219208,47.7367713 30.7692318,47.4408672 31.3173291,47.1446029 C32.5519319,46.4772877 32.5724133,45.3745201 31.3554078,44.6931444 L31.3554181,44.6931366 Z M22.4185256,49.5430558 C21.8720808,49.2459266 21.3252758,48.9487962 20.7786103,48.6513068 C19.5422054,47.9784382 17.5305226,47.97238 16.3124342,48.6385418 C15.7721921,48.9340122 15.2324547,49.2299163 14.6955239,49.5237278 C13.487245,50.1849849 13.5190488,51.2658977 14.7606472,51.927591 C15.3096158,52.2202498 15.8583674,52.5131241 16.4051027,52.8045566 C17.6346568,53.4598277 19.6224621,53.463579 20.8253321,52.814509 C21.3602377,52.5257448 21.8973067,52.2341691 22.4353181,51.944034 C23.6503045,51.2886906 23.6430922,50.2086363 22.4185144,49.5430497 L22.4185256,49.5430558 Z M65.1507287,8.76361897 C61.1055172,12.0148138 57.8091746,17.4521354 58.321297,22.7481295 L74.6821509,32.261112 C74.2422978,27.7123637 77.2554195,21.5079745 80.8643213,18.7199624 L78.087165,18.7183037 C78.0114402,18.1723636 77.7190702,15.6997719 77.5992816,15.1996212 L73.9062985,16.2546477 C73.7987693,15.5005727 73.5565215,13.1934157 73.4031257,12.7268849 L69.7101426,13.7819837 L69.2068252,10.254297 L65.5139816,11.3093957 L65.1507186,8.76359621 L65.1507287,8.76361897 Z M71.5472368,41.581329 L43.1198902,25.1490758 L39.8023561,31.7987156 C39.7979569,31.8190531 39.8120922,31.8616753 39.8270207,31.8799935 L68.2543673,48.3122467 L71.5719014,41.662607 C71.5763007,41.6421253 71.5620933,41.5996472 71.5471646,41.581329 L71.5472368,41.581329 Z" id="Shape"></path>
                </g>
            </g>
        </g>
    </g>
</svg>